<?xml version="1.0" encoding="UTF-8"?>
<svg width="74px" height="74px" viewBox="0 0 74 74" version="1.1" xmlns="http://www.w3.org/2000/svg" xmlns:xlink="http://www.w3.org/1999/xlink">
    <!-- Generator: Sketch 54.1 (76490) - https://sketchapp.com -->
    <title>Group 3</title>
    <desc>Created with Sketch.</desc>
    <g id="Page-1" stroke="none" stroke-width="1" fill="none" fill-rule="evenodd">
        <g id="iPhone-8" transform="translate(-15.000000, -1127.000000)">
            <g id="Group-3" transform="translate(15.000000, 1127.000000)">
                <circle id="Oval" fill="#575FCF" cx="37" cy="37" r="37"></circle>
                <g id="portfolio" transform="translate(21.000000, 23.000000)" fill="#FFFFFF" fill-rule="nonzero">
                    <polygon id="Path" points="14.2702703 15.1621622 19.6216216 15.1621622 19.6216216 16.9459459 14.2702703 16.9459459"></polygon>
                    <path d="M26.7724686,17.3377283 L21.3339844,17.3377283 L21.3339844,18.271296 C21.3339844,18.7871894 20.9014434,19.2048637 20.3671875,19.2048637 L12.6328125,19.2048637 C12.0985566,19.2048637 11.6660156,18.7871894 11.6660156,18.271296 L11.6660156,17.3377283 L6.22753145,17.3377283 C4.97749325,17.3377283 3.87197115,16.5682644 3.47618868,15.4231852 L0,5.35135135 L0,25.7398375 C0,27.284114 1.30114746,28.5405405 2.90039062,28.5405405 L30.0996094,28.5405405 C31.6988525,28.5405405 33,27.284114 33,25.7398375 L33,5.35208072 L29.5235596,15.4231852 C29.1280289,16.5682644 28.0225067,17.3377283 26.7724686,17.3377283 Z" id="Path"></path>
                    <path d="M20.3356634,0 L12.6640869,0 C11.0778287,0 9.78724577,1.27535895 9.78724577,2.84290541 L9.78724577,3.79054054 L1.78378378,3.79054054 L5.40056243,14.5143647 C5.53166852,14.902056 5.8977665,15.1621622 6.310813,15.1621622 L11.7051399,15.1621622 L11.7051399,14.214527 C11.7051399,13.6908599 12.1341688,13.2668919 12.6640869,13.2668919 L20.3356634,13.2668919 C20.8655815,13.2668919 21.2946104,13.6908599 21.2946104,14.214527 L21.2946104,15.1621622 L26.6889373,15.1621622 C27.1019838,15.1621622 27.4680818,14.902056 27.5991879,14.5143647 L31.2162162,3.79054054 L23.2125045,3.79054054 L23.2125045,2.84290541 C23.2125045,1.27535895 21.9219216,0 20.3356634,0 Z M11.7051399,3.79054054 L11.7051399,2.84290541 C11.7051399,2.31997861 12.134918,1.89527027 12.6640869,1.89527027 L20.3356634,1.89527027 C20.8648323,1.89527027 21.2946104,2.31997861 21.2946104,2.84290541 L21.2946104,3.79054054 L11.7051399,3.79054054 Z" id="Shape"></path>
                </g>
            </g>
        </g>
    </g>
</svg>