<?xml version="1.0" encoding="UTF-8"?>
<svg width="74px" height="74px" viewBox="0 0 74 74" version="1.1" xmlns="http://www.w3.org/2000/svg" xmlns:xlink="http://www.w3.org/1999/xlink">
    <!-- Generator: Sketch 54.1 (76490) - https://sketchapp.com -->
    <title>Group</title>
    <desc>Created with Sketch.</desc>
    <g id="Page-1" stroke="none" stroke-width="1" fill="none" fill-rule="evenodd">
        <g id="iPhone-8" transform="translate(-15.000000, -1007.000000)">
            <g id="Group" transform="translate(15.000000, 1007.000000)">
                <circle id="Oval" fill="#575FCF" cx="37" cy="37" r="37"></circle>
                <g id="graduation-hat-and-diploma" transform="translate(21.000000, 21.000000)" fill="#FFFFFF" fill-rule="nonzero">
                    <path d="M19.913869,23.8052906 C19.0549514,23.1976981 11.6992825,17.9140914 9.71659677,14.2162344 L9.6079131,14.0125907 L9.38421466,14.0036883 C7.67693128,13.930243 6.34951318,14.9718302 5.78077045,15.5104287 C5.54863056,15.2622728 5.31226994,15.00744 5.07063342,14.7448176 L4.78256892,14.4332317 L4.49661478,14.7470432 C3.3770674,15.9722435 2.88218737,17.1117577 3.02358166,18.1388784 C3.13859643,18.9723707 3.67884926,19.6979207 4.5863052,20.2398576 C4.7498583,20.3377846 6.64390877,21.6965217 8.70256752,23.4302748 C8.34697142,23.8130803 7.0543743,24.6955361 6.5858738,25.047183 C6.05933832,25.4411167 3.86561636,27.5409831 3.86561636,27.5409831 L5.28272487,27.8937429 L5.77338418,28.9041715 C5.77338418,28.9041715 6.44658986,27.1659672 7.18521679,26.3079932 C7.92384371,25.4500191 9.21433046,24.7645301 9.21433046,24.7645301 C9.21433046,24.7645301 8.51685561,25.8150197 8.01669967,26.8343508 C7.5175989,27.8536818 7.38992196,29.620819 7.38992196,29.620819 L8.25622583,29.3314893 L8.85345845,30.7046929 C8.85345845,30.7046929 9.01279083,28.7639578 9.37999393,27.4998093 C9.67649988,26.4771398 10.4035198,25.5078851 10.6736462,25.168479 C13.2841648,27.5921722 16.0118085,30.5188541 16.5573373,31.1097546 C16.8865538,31.5081394 17.3128471,31.8019204 17.8678725,31.9321188 C18.0662466,31.9777439 18.2677862,32 18.4640499,32 C19.5930939,32 20.6651581,31.2577579 21.3552467,29.9579995 C22.1614053,28.445695 22.3882692,26.1199288 20.9890988,24.5920451 C20.606068,24.1702913 20.2430856,23.9310378 19.913869,23.8052906 Z M8.845017,22.4732609 C6.95624244,20.9064289 5.23313135,19.6589725 4.98199819,19.5087436 C4.2866337,19.0936666 3.89410625,18.5917907 3.81496765,18.0175824 C3.7221117,17.3432215 4.05132827,16.5486774 4.79417592,15.6517551 C6.64179841,17.645905 8.22140484,19.2283162 9.5625403,20.4869007 C8.95581104,21.5251495 8.84923773,22.0826657 8.845017,22.4732609 Z M10.0183786,19.7847196 C8.95370068,18.7865319 7.73496625,17.5769109 6.34634764,16.1102316 C6.81801369,15.6751241 7.85525692,14.875016 9.13941259,14.8427446 C9.81050791,16.0034021 10.922669,17.2775659 12.1762244,18.5105558 C11.5241224,18.5806627 10.7095224,18.8811205 10.0183786,19.7847196 Z M10.8298131,24.194773 C10.8973447,23.6561745 11.0556219,22.9139324 11.4122732,22.1494341 C13.7611068,24.1669529 15.094856,24.9047438 15.6783712,25.1640278 C15.5876256,25.8739985 15.4346243,27.5098245 15.70053,29.0054369 C14.4395884,27.6900992 12.5856348,25.8005533 10.8298131,24.194773 Z M20.6630478,29.5495994 C20.1660574,30.4832443 19.2174494,31.3857306 18.0430326,31.1119802 C16.0265811,30.6423757 16.2576658,26.510524 16.5172404,24.9581585 L16.5826616,24.5653377 L16.212293,24.4740875 C16.1964653,24.4696363 14.9418547,24.0979588 11.8417319,21.4283353 C12.424192,20.7139133 13.3569723,20.3945378 14.0660542,20.2532113 C15.8166,21.7855463 17.5597595,23.1097864 18.6012235,23.8765103 C18.569568,23.8932024 18.540023,23.9087817 18.5136434,23.9265866 C17.3128471,24.6454598 16.811636,26.7252957 17.0722657,27.7212578 C17.3782683,28.8930434 18.1200608,29.6453008 18.900895,29.6297215 C19.2343323,29.6163678 20.0468219,29.4182882 20.3433278,27.8536818 L20.3897558,27.6099771 L20.2114302,27.4508458 C19.0844965,26.4393044 18.4746017,25.8417271 18.1833717,25.5423821 C18.3690836,25.1618021 18.6138857,24.8312985 18.9082812,24.6554751 C19.3546229,24.390627 19.8621652,24.5642249 20.4203561,25.1751558 C21.5335724,26.3970177 21.3267568,28.2999174 20.6630478,29.5495994 Z M19.5065691,27.9271271 C19.3672851,28.4601615 19.13409,28.7806499 18.8692395,28.7884395 C18.866074,28.7884395 18.8618533,28.7884395 18.8565774,28.7884395 C18.5252504,28.7884395 18.0599155,28.342204 17.8393826,27.4986965 C17.7686854,27.2293972 17.7887339,26.8276739 17.8837002,26.4092586 C18.2139719,26.735311 18.7299556,27.2271716 19.5065691,27.9271271 Z" id="Shape"></path>
                    <path d="M6.29053143,8.40780043 L5,12.385687 C5,12.385687 10.2743458,12.8788993 14.6660372,14.1965548 C19.0598867,15.5173253 23.6878878,18 23.6878878,18 L25,13.9515062 C25,13.9515062 21.0582681,10.1283324 16.3633666,8.71826456 C11.6706231,7.30923503 6.29053143,8.40780043 6.29053143,8.40780043 Z" id="Path"></path>
                    <path d="M33,14.8000365 L31.4605625,13.1664083 L31.6120181,12.6707395 C31.6120181,12.6707395 32.9686271,10.1475335 29.5522227,10.6136592 C29.3748033,10.6486733 29.2687844,10.7066655 29.209284,10.7788821 L19.0433714,0 L0,4.25093462 L5.23711644,8.98221939 L5.51839103,8.07075773 C5.51839103,8.07075773 11.5344217,6.78070575 16.7801928,8.43621774 C22.0270456,10.0939181 26.434402,14.5855749 26.434402,14.5855749 L25.9443352,16.1754354 L29.8778521,15.4073128 C29.2222659,17.5278563 28.4693155,19.9711863 28.2345594,20.7272727 L27.1148702,20.3727546 L26.3013375,23.0053798 L28.1144768,22.4342117 L29.4472856,24 L30.2586546,21.3673749 L29.0480921,20.9833136 L30.8266129,15.2213003 L33,14.8000365 Z M30.745476,14.2102672 C30.6102478,14.6501322 30.1472266,14.8952311 29.7123328,14.7584572 C29.277439,14.620589 29.0340283,14.1533692 29.1692565,13.7135041 C29.3066483,13.2736391 29.7696696,13.0285402 30.2034815,13.1653141 C30.6372935,13.3020881 30.8807042,13.7714963 30.745476,14.2102672 Z M29.97738,11.5929607 C30.4068647,11.4638461 31.1360149,11.3303547 30.9423682,11.9584207 C30.9228954,12.0196954 30.8698859,12.1969545 30.7876672,12.4540895 L29.97738,11.5929607 Z" id="Shape"></path>
                </g>
            </g>
        </g>
    </g>
</svg>